<svg fill="#ffffff" viewBox="-6.5 0 32 32" version="1.1" xmlns="http://www.w3.org/2000/svg" stroke="#ffffff"><g id="SVGRepo_bgCarrier" stroke-width="0"></g><g id="SVGRepo_tracerCarrier" stroke-linecap="round" stroke-linejoin="round"></g><g id="SVGRepo_iconCarrier"> <title>style-two-pin</title> <path d="M9.625 28.125c-0.25 1.062-1.188 1.875-2.313 1.875-0.812 0-1.5-0.438-1.938-1.125-0.938-1.438-0.688-3.313 0.625-4.563l8.313-7.813-5.313-5.313c-0.5-0.5-0.5-1.313 0-1.813s1.313-0.5 1.813 0l5.313 5.313 7.813-8.313c1.25-1.313 3.125-1.563 4.563-0.625 1.5 0.938 2.063 2.875 1.313 4.5l-9.125 16.063c-0.313 0.5-0.813 0.875-1.375 0.938h-0.125c-0.563 0-1.062-0.25-1.438-0.688l-6.125-6.125-2.813 2.813zM21.938 3.438c-0.563-0.313-1.25-0.188-1.688 0.25l-7.813 8.313 1.813 1.813 8.313-7.813c0.438-0.438 0.563-1.125 0.25-1.688zM9.5 16.188l6.125 6.125 7.688-13.5c0.313-0.563 0.125-1.25-0.375-1.625-0.25-0.188-0.5-0.25-0.75-0.25-0.313 0-0.625 0.063-0.875 0.25l-13.5 7.688c-0.375 0.5-0.313 1.188 0.125 1.625s1.125 0.563 1.625 0.125z"> </path> </g></svg>