<svg viewBox="0 0 24 24" xmlns="http://www.w3.org/2000/svg" fill="#ffffff"><g id="SVGRepo_bgCarrier" stroke-width="0"></g><g id="SVGRepo_tracerCarrier" stroke-linecap="round" stroke-linejoin="round"></g><g id="SVGRepo_iconCarrier"><path d="M12,2A10,10,0,0,0,2,12a9.89,9.89,0,0,0,2.2,6.32l.09.13,0,0,0,0,0,0A9.91,9.91,0,0,0,12,22a10.28,10.28,0,0,0,5-1.2l.1-.06.13-.08a9.93,9.93,0,0,0,4.77-8.66A10,10,0,0,0,12,2Zm1,17.91V19a1,1,0,0,0-2,0v.91A8,8,0,0,1,4,12a8.1,8.1,0,0,1,2.06-5.33l.08-.12.33-.4a1,1,0,0,0-1.23-1.57A10.61,10.61,0,0,0,4.5,6.1,8,8,0,0,1,12,4a8,8,0,0,1,7.94,7.5,1,1,0,0,0,1,.5h.5A8,8,0,0,1,13,19.91Z"></path><path d="M12,6a6,6,0,1,0,6,6A6,6,0,0,0,12,6Zm0,10a4,4,0,1,1,4-4A4,4,0,0,1,12,16Z"></path><path d="M13.41,11.59l-2-2a1,1,0,0,0-1.42,1.42l2,2a1,1,0,0,0,1.42,0A1,1,0,0,0,13.41,11.59Z"></path></g></svg>